<svg xmlns="http://www.w3.org/2000/svg" width="512" height="512" overflow="visible"><linearGradient id="a" x1="161.6" x2="474.99" y1="153.9" y2="489.98" gradientUnits="userSpaceOnUse"><stop stop-color="#454545" offset=".101"/><stop stop-color="#3E3E3E" offset=".18"/><stop stop-color="#111" offset=".725"/><stop offset="1"/></linearGradient><path d="M486.63 256.06c0 126.89-102.86 229.75-229.76 229.75-126.9 0-229.77-102.87-229.77-229.75 0-126.9 102.87-229.76 229.77-229.76 126.9-.001 229.76 102.86 229.76 229.76z" fill="url(#a)"/><path d="M26.615 256.06c0 126.95 103.29 230.24 230.25 230.24s230.24-103.28 230.24-230.24c0-126.95-103.29-230.24-230.24-230.24-126.96-.001-230.25 103.28-230.25 230.24zm.964 0c0-126.42 102.86-229.27 229.29-229.27 126.42 0 229.28 102.85 229.28 229.27 0 126.42-102.85 229.27-229.28 229.27S27.579 382.48 27.579 256.06z"/><linearGradient id="b" x1="281.52" x2="400.24" y1="291.16" y2="409.87" gradientTransform="translate(-42.04 -83.961)" gradientUnits="userSpaceOnUse"><stop stop-color="#FBFBFB" offset=".062"/><stop stop-color="#F3F3F3" offset=".218"/><stop stop-color="#DCDCDC" offset=".463"/><stop stop-color="#B8B8B8" offset=".766"/><stop stop-color="#AEAEAE" offset=".837"/><stop stop-color="#999" offset=".978"/></linearGradient><path fill="url(#b)" d="M316.32 356.55 239 332.16l-30.8-92.4 64.81-66.09 89.83 31.44 28.57 87.59z"/><path d="m207.32 239.64 30.97 92.903 77.81 24.547 75.535-64.232-28.738-88.121-90.343-31.619-65.234 66.522zm65.493-65.411 89.315 31.26 28.391 87.055-74.639 63.469-76.833-24.238-30.628-91.88 64.394-65.666z"/><linearGradient id="c" x1="160.64" x2="238.02" y1="300.77" y2="466.71" gradientTransform="translate(-42.04 -83.961)" gradientUnits="userSpaceOnUse"><stop stop-color="#F5F5F5" offset=".157"/><stop stop-color="#EAEAEA" offset=".314"/><stop stop-color="#E0E0E0" offset=".517"/><stop stop-color="#C6C6C6" offset=".693"/><stop stop-color="#A7A7A7" offset=".871"/></linearGradient><path fill="url(#c)" d="m238.66 331.85-53.26 55.83-84.06-38.49-17.326-81.51 60.326-62.88 64.34 35.77z"/><path d="m83.49 267.2 17.434 81.991 84.59 38.736 53.698-56.289-30.137-91.736-64.827-36.035L83.49 267.2zm60.938-62.13 63.849 35.491 29.839 90.83-52.826 55.377-83.527-38.25-17.227-81.019 59.892-62.429z"/><linearGradient id="d" x1="332.45" x2="389.47" y1="139.26" y2="295.91" gradientTransform="translate(-42.04 -83.961)" gradientUnits="userSpaceOnUse"><stop stop-color="#fff" offset=".056"/><stop stop-color="#FAFAFA" offset=".236"/><stop stop-color="#ECECEC" offset=".449"/><stop stop-color="#D4D4D4" offset=".678"/><stop stop-color="#B3B3B3" offset=".917"/><stop stop-color="#A6A6A6" offset="1"/></linearGradient><path fill="url(#d)" d="m363.08 206.25-90.48-31.44-39.31-62.56 47-53.267 91.45 15.718 35.93 88.879z"/><path d="m232.78 111.7 39.584 63.009 90.922 31.594 45.036-43.099-36.155-89.431-91.979-15.809L232.78 111.7zm47.776-52.696c.524.09 90.396 15.537 90.92 15.626l35.71 88.329-44.14 42.241-90.047-31.289-39.021-62.114 46.578-52.793z"/><linearGradient id="e" x1="389.18" x2="451" y1="410.93" y2="479.58" gradientTransform="translate(-42.04 -83.961)" gradientUnits="userSpaceOnUse"><stop stop-color="#C1C1C1" offset=".118"/><stop stop-color="#BCBCBC" offset=".3"/><stop stop-color="#ADADAD" offset=".525"/><stop stop-color="#949494" offset=".771"/><stop stop-color="#787878" offset=".983"/></linearGradient><path fill="url(#e)" d="m315.26 422.56-.25-66.66 75.41-63.54 45.55 2.25 6.41 70.91-69.94 60.32z"/><path d="m314.86 356.01.247 67.338 57.833 3.32 70.277-60.612-6.479-71.57-46.158-2.275-75.72 63.799zm76.05-62.82 44.945 2.215 6.357 70.244-69.607 60.036-56.54-3.246-.241-65.984 75.086-63.265z"/><linearGradient id="f" x1="221.5" x2="379.18" y1="121.81" y2="555.01" gradientTransform="translate(-42.04 -83.961)" gradientUnits="userSpaceOnUse"><stop stop-color="#fff" offset=".056"/><stop stop-color="#D4D4D4" offset=".17"/><stop stop-color="#ACACAC" offset=".295"/><stop stop-color="#8B8B8B" offset=".424"/><stop stop-color="#727272" offset=".556"/><stop stop-color="#606060" offset=".693"/><stop stop-color="#555" offset=".837"/><stop stop-color="#525252" offset="1"/></linearGradient><path d="M243.42 26.999c-38.254 2.227-73.994 13.813-104.95 32.522l-26.856 49.334 41.706 23.74 80.858-19.889 46.843-53.265-37.597-32.442z" fill="url(#f)"/><path d="M243.39 26.518c-37.097 2.159-73.465 13.429-105.18 32.591l-.111.067-27.145 49.863 42.283 24.069 81.191-19.971 47.264-53.743-38.113-32.888-.194.012zm-.133.978 37.075 31.993-46.422 52.787-80.525 19.807-41.129-23.412 26.565-48.798c31.497-19.01 67.602-30.202 104.44-32.377z"/><linearGradient id="g" x1="93.104" x2="388.05" y1="213.24" y2="564.74" gradientTransform="translate(-42.04 -83.961)" gradientUnits="userSpaceOnUse"><stop stop-color="#fff" offset=".084"/><stop stop-color="#FAFAFA" offset=".101"/><stop stop-color="#C7C7C7" offset=".266"/><stop stop-color="#9D9D9D" offset=".43"/><stop stop-color="#7C7C7C" offset=".587"/><stop stop-color="#656565" offset=".738"/><stop stop-color="#565656" offset=".879"/><stop stop-color="#525252" offset="1"/></linearGradient><path d="M48.927 159.16a227.795 227.795 0 0 0-17.471 54.413l15.978 31.958 37.867 22.456 59.676-62.881 8.983-73.793-42.352-23.747-62.681 51.594z" fill="url(#g)"/><path d="m48.537 158.86-.046.099a228.584 228.584 0 0 0-17.508 54.528l-.03.159 16.113 32.229 38.319 22.724 60.049-63.274 9.042-74.271-42.92-24.065-63.019 51.871zm63.123-50.711 41.783 23.429-8.925 73.315-59.302 62.487-37.415-22.188-15.838-31.68a227.567 227.567 0 0 1 17.36-54.052l62.337-51.311z"/><linearGradient id="h" x1="79.721" x2="79.721" y1="110.56" y2="569.4" gradientTransform="translate(-42.04 -83.961)" gradientUnits="userSpaceOnUse"><stop stop-color="#EBEBEB" offset=".433"/><stop stop-color="#E7E7E7" offset=".452"/><stop stop-color="#DBDBDB" offset=".471"/><stop stop-color="#C7C7C7" offset=".49"/><stop stop-color="#B0B0B0" offset=".506"/></linearGradient><path d="m28.115 272.45 19.723-28.366-16.068-32.135a230.667 230.667 0 0 0-4.246 44.071c-.001 5.526.207 11.002.591 16.43z" fill="url(#h)"/><path d="M31.298 211.86a231.797 231.797 0 0 0-4.255 44.163c-.001 5.36.199 10.899.593 16.464l.096 1.36 20.665-29.721-16.829-33.655-.27 1.389zm-3.293 44.201v-.038c0-14.241 1.363-28.54 3.993-42.539l15.282 30.563-18.759 26.98c-.329-5.057-.516-10.09-.516-14.966z"/><linearGradient id="i" x1="326.65" x2="97.18" y1="90.971" y2="488.43" gradientTransform="translate(-42.04 -83.961)" gradientUnits="userSpaceOnUse"><stop stop-color="#F2F2F2" offset=".876"/><stop stop-color="#E5E5E5" offset=".894"/><stop stop-color="#C2C2C2" offset=".927"/><stop stop-color="#8A8A8A" offset=".971"/><stop stop-color="#616161" offset="1"/></linearGradient><path d="m83.371 370.99-32.36-13.77a229.796 229.796 0 0 0 33.729 50.37l-1.369-36.6z" fill="url(#i)"/><path d="M50.579 357.43a230.289 230.289 0 0 0 33.8 50.476l.893 1.013-1.431-38.255-33.834-14.396.572 1.162zm1.467.751 30.855 13.129 1.306 34.91a229.321 229.321 0 0 1-32.161-48.039z"/><linearGradient id="j" x1="267.76" x2="185.4" y1="101.47" y2="568.56" gradientTransform="translate(-42.04 -83.961)" gradientUnits="userSpaceOnUse"><stop stop-color="#F7F7F7" offset=".006"/><stop stop-color="#F5F5F5" offset=".405"/><stop stop-color="#EFEFEF" offset=".549"/><stop stop-color="#E3E3E3" offset=".652"/><stop stop-color="#D2D2D2" offset=".735"/><stop stop-color="#BCBCBC" offset=".806"/><stop stop-color="#A1A1A1" offset=".869"/><stop stop-color="#818181" offset=".924"/><stop stop-color="#707070" offset=".949"/></linearGradient><path d="m101.98 348.53-19.895 22.132 2.078 36.275c30.222 34.571 70.646 59.989 116.58 71.559l31.507-36.604-48.77-55.51-81.5-37.852z" fill="url(#j)"/><path d="m81.594 370.49 2.099 36.641.109.124c31.01 35.474 71.407 60.27 116.82 71.709l.289.072 31.974-37.146-49.113-55.9-81.916-38.045-20.267 22.545zm20.506-21.373 81.086 37.66 48.426 55.119-31.036 36.057c-45.059-11.41-85.142-36.026-115.94-71.212l-2.057-35.905 19.524-21.719z"/><linearGradient id="k" x1="253.26" x2="335.27" y1="115.04" y2="580.13" gradientTransform="translate(-42.04 -83.961)" gradientUnits="userSpaceOnUse"><stop stop-color="#F7F7F7" offset=".006"/><stop stop-color="#F5F5F5" offset=".427"/><stop stop-color="#EFEFEF" offset=".578"/><stop stop-color="#E3E3E3" offset=".686"/><stop stop-color="#D2D2D2" offset=".774"/><stop stop-color="#BCBCBC" offset=".849"/><stop stop-color="#A1A1A1" offset=".915"/><stop stop-color="#818181" offset=".973"/><stop stop-color="#707070" offset="1"/></linearGradient><path d="M198.91 478.03c18.537 4.834 37.985 7.414 58.04 7.414 41.987 0 81.337-11.29 115.19-30.985l-.164-28.45-55.025-4.008-85.342 19.245-32.698 36.784z" fill="url(#k)"/><path d="m231.35 440.81-33.323 37.488.76.198c18.905 4.93 38.474 7.43 58.162 7.43 40.601 0 80.517-10.737 115.43-31.051l.24-.141-.168-29.173-55.54-4.046-85.563 19.295zm85.635-18.324 54.511 3.97.16 27.722c-34.712 20.139-74.368 30.785-114.71 30.785a229.653 229.653 0 0 1-57.139-7.222l32.054-36.06 85.121-19.195z"/><linearGradient id="l" x1="98.53" x2="538.99" y1="219.75" y2="380.07" gradientTransform="translate(-42.04 -83.961)" gradientUnits="userSpaceOnUse"><stop stop-color="#fff" offset=".736"/><stop stop-color="#F9F9F9" offset=".766"/><stop stop-color="#E9E9E9" offset=".806"/><stop stop-color="#CECECE" offset=".851"/><stop stop-color="#A9A9A9" offset=".899"/><stop stop-color="#797979" offset=".95"/><stop stop-color="#424242" offset="1"/></linearGradient><path d="m479.42 199.8-23.229 16.213-20.219 79.25 6.426 70.906 14.68 2.061c18.645-33.178 29.288-71.452 29.288-112.22 0-19.396-2.417-38.225-6.946-56.214z" fill="url(#l)"/><path d="m455.77 215.73-20.283 79.503 6.467 71.369 15.384 2.159.161-.287c19.2-34.167 29.35-73.053 29.35-112.45 0-19.035-2.342-37.987-6.961-56.332l-.17-.676-23.948 16.715zm23.335-15.113a229.949 229.949 0 0 1 6.78 55.407c0 39.125-10.06 77.736-29.076 111.69l-13.965-1.961c-.068-.751-6.369-70.28-6.385-70.443l20.154-78.997 22.492-15.698z"/><linearGradient id="m" x1="306.16" x2="601.1" y1="34.466" y2="385.97" gradientTransform="translate(-42.04 -83.961)" gradientUnits="userSpaceOnUse"><stop stop-color="#fff" offset=".213"/><stop stop-color="#FCFCFC" offset=".33"/><stop stop-color="#F1F1F1" offset=".431"/><stop stop-color="#DFDFDF" offset=".527"/><stop stop-color="#C6C6C6" offset=".619"/><stop stop-color="#A6A6A6" offset=".708"/><stop stop-color="#7E7E7E" offset=".796"/><stop stop-color="#4F4F4F" offset=".882"/><stop stop-color="#191919" offset=".965"/><stop offset="1"/></linearGradient><path d="M479.67 200.84c-13.365-54.13-45.933-100.69-90.073-132.03l-18.104 5.392 35.291 89.196 50.378 53.585 22.508-16.144z" fill="url(#m)"/><path d="m370.86 73.89 35.518 89.771 50.73 53.959 23.114-16.58-.078-.316c-13.172-53.347-45.228-100.33-90.262-132.31l-.191-.136-18.831 5.608zm18.65-4.549c44.659 31.772 76.469 78.382 89.615 131.3l-21.895 15.704-50.025-53.211-35.064-88.622c.939-.28 16.932-5.044 17.369-5.173z"/><path d="M277.1 109.99c50.242-14.088 100.36-17.326 146.82-11.286-41.832-44.396-101.16-72.112-166.98-72.112-126.7 0-229.43 102.72-229.43 229.43 0 29.076 5.425 56.884 15.296 82.484 18.864-100.67 108.72-193.3 234.29-228.52z" fill="#fff" opacity=".19"/></svg>